<?xml version="1.0" encoding="UTF-8" standalone="no"?>
<!-- Created with Inkscape (http://www.inkscape.org/) -->

<svg
   version="1.1"
   id="svg2"
   width="1279.7067"
   height="404.94666"
   viewBox="0 0 1279.7067 404.94666"
   sodipodi:docname="airbnb (2).eps"
   xmlns:inkscape="http://www.inkscape.org/namespaces/inkscape"
   xmlns:sodipodi="http://sodipodi.sourceforge.net/DTD/sodipodi-0.dtd"
   xmlns="http://www.w3.org/2000/svg"
   xmlns:svg="http://www.w3.org/2000/svg">
  <defs
     id="defs6" />
  <sodipodi:namedview
     id="namedview4"
     pagecolor="#ffffff"
     bordercolor="#000000"
     borderopacity="0.25"
     inkscape:showpageshadow="2"
     inkscape:pageopacity="0.0"
     inkscape:pagecheckerboard="0"
     inkscape:deskcolor="#d1d1d1" />
  <g
     id="g8"
     inkscape:groupmode="layer"
     inkscape:label="ink_ext_XXXXXX"
     transform="matrix(1.3333333,0,0,-1.3333333,0,404.94667)">
    <g
       id="g10"
       transform="scale(0.1)">
      <path
         d="M 2542.09,400.148 C 2475.66,304.09 2386.91,254 2385.52,253.23 2366.36,242.648 1925.47,8.89844 1513.28,563.781 c 114.99,130.508 379.49,468.019 379.49,811.459 0,405.53 -274.73,549.42 -510,549.42 -39.93,0 -180.11,-7.11 -307.61,-98.53 -89.289,-64.02 -195.726,-187.95 -195.726,-414.8 0,-305.23 284.696,-693.439 401.666,-840.041 C 1181.43,456.18 930.578,197.059 680.391,181.141 377.992,161.871 240.609,401.262 235.145,411.031 c -0.543,1.02 -0.352,0.668 -0.934,1.668 -4.063,7.211 -98.656,179.02 -28.781,405.422 64.062,207.549 601.902,1273.839 877.35,1808.669 0.41,0.8 0.81,1.6 1.2,2.41 1.09,2.28 111.21,227.91 313.75,227.91 99.38,0 185.75,-55.37 256.74,-164.57 122.62,-188.66 744.07,-1428.04 921.31,-1874.431 61.81,-155.64 50.47,-296.269 -33.69,-417.961 z M 1400.98,709.602 c -133.14,171.226 -341.55,485.228 -341.55,701.728 0,329.54 310.13,333.33 323.34,333.33 99.22,0 330,-36 330,-369.42 0,-260.98 -202.98,-536.631 -311.79,-665.638 z m 1342.1,174.937 c -182.81,460.431 -806.46,1704.191 -937.7,1906.091 -132.41,203.72 -294.77,246.48 -407.65,246.48 -307.11,0 -462.105,-301.63 -475.441,-328.81 C 883.27,2632.52 117.773,1144.46 33.4375,871.211 -58.0547,574.77 65.957,344.59 77.5977,323.98 90.625,300.539 265.242,-0.0117188 644.844,0 660.16,0 675.828,0.480469 691.82,1.51172 989.719,20.4609 1263.68,281.879 1392.58,425.23 1641,107.648 1904.26,26.5391 2088.22,16.8711 c 215.88,-11.38282 370.6,71.1875 384.72,79 9.35,5.1679 123.24,69.6799 212.34,194.9689 85.93,120.84 165.71,321.93 57.8,593.699"
         style="fill:#ef315b;fill-opacity:1;fill-rule:nonzero;stroke:none"
         id="path12" />
      <path
         d="m 3982.77,1062.99 c -167.5,0 -322.5,125 -322.5,337.5 0,212.5 202.5,315 335,315 132.5,0 244.15,-117.5 244.15,-117.5 v -422.5 c 0,0 -89.15,-112.5 -256.65,-112.5 z m 313.45,890.01 -0.6,-0.43 c 0,0 -55.5,-2.91 -56.2,-55.32 v -31.76 c 0,0 -59.15,117.5 -286.65,117.5 -227.5,0 -582.5,-165.46 -582.5,-596.48 0,-431.022 385,-593.522 567.5,-593.522 182.5,0 238.31,55 301.65,122.5 v -40.16 c 0.7,-52.406 56.2,-55.308 56.2,-55.308 h 235.2 V 1953 h -234.6"
         style="fill:#ef315b;fill-opacity:1;fill-rule:nonzero;stroke:none"
         id="path14" />
      <path
         d="m 4997.77,820.02 h -282.5 V 1953 h 282.5 V 820.02"
         style="fill:#ef315b;fill-opacity:1;fill-rule:nonzero;stroke:none"
         id="path16" />
      <path
         d="m 5463.61,1857.99 v 39.26 c -0.69,52.41 -56.2,55.32 -56.2,55.32 l -0.6,0.43 H 5172.22 V 820.02 h 235.19 c 0,0 55.51,2.902 56.2,55.308 v 737.662 c 0,0 106.66,152.5 389.16,90 v 267.5 c 0,0 -255.81,65 -389.16,-112.5"
         style="fill:#ef315b;fill-opacity:1;fill-rule:nonzero;stroke:none"
         id="path18" />
      <path
         d="m 6505.27,1060.49 c -150,0 -242.5,115 -242.5,115 v 422.5 c 0,0 110,115 255,115 145,0 325,-110 325,-326.48 0,-216.48 -187.5,-326.02 -337.5,-326.02 z m 47.5,921.62 c -172.5,0 -290,-124.12 -290,-124.12 v 632.5 h -291.4 V 820.02 h 235.2 c 0,0 55.5,2.902 56.2,55.308 v 40.16 c 0,0 120,-122.5 290,-122.5 170,0 585,127.5 585,582.252 0,454.75 -412.5,606.87 -585,606.87"
         style="fill:#ef315b;fill-opacity:1;fill-rule:nonzero;stroke:none"
         id="path20" />
      <path
         d="m 8965.27,1060.49 c -150,0 -242.5,115 -242.5,115 v 422.5 c 0,0 110,115 255,115 145,0 325,-110 325,-326.48 0,-216.48 -187.5,-326.02 -337.5,-326.02 z m 47.5,921.62 c -172.5,0 -290,-124.12 -290,-124.12 v 632.5 h -291.4 V 820.02 h 235.2 c 0,0 55.5,2.902 56.2,55.308 v 40.16 c 0,0 120,-122.5 290,-122.5 170,0 585,127.5 585,582.252 0,454.75 -412.5,606.87 -585,606.87"
         style="fill:#ef315b;fill-opacity:1;fill-rule:nonzero;stroke:none"
         id="path22" />
      <path
         d="m 8280.27,1572.99 c 0,255 -225,409.12 -447.5,409.12 -222.5,0 -307.5,-126.62 -307.5,-126.62 v 41.76 c -0.7,52.41 -56.2,55.32 -56.2,55.32 l -0.6,0.43 h -212.1 V 820.02 h 291.4 v 792.43 c 33.71,43.24 107.79,111.79 238.75,111.79 191.25,0 198.75,-198.75 198.75,-198.75 V 820.02 h 295 c 0,152.82 0,549.75 0,752.97"
         style="fill:#ef315b;fill-opacity:1;fill-rule:nonzero;stroke:none"
         id="path24" />
      <path
         d="m 5049.43,2297.58 c 0,-106.55 -86.37,-192.92 -192.91,-192.92 -106.55,0 -192.92,86.37 -192.92,192.92 0,106.54 86.37,192.91 192.92,192.91 106.54,0 192.91,-86.37 192.91,-192.91"
         style="fill:#ef315b;fill-opacity:1;fill-rule:nonzero;stroke:none"
         id="path26" />
    </g>
  </g>
</svg>
